<svg xmlns="http://www.w3.org/2000/svg" viewBox="0 0 512 512">
  <defs>
    <linearGradient id="bg" x1="0%" y1="0%" x2="100%" y2="100%">
      <stop offset="0%" style="stop-color:#1a73e8"/>
      <stop offset="100%" style="stop-color:#1557b0"/>
    </linearGradient>
  </defs>

  <!-- Rounded square background -->
  <rect width="512" height="512" rx="96" ry="96" fill="url(#bg)"/>

  <!-- Bell shape - clean geometric -->
  <g fill="white">
    <!-- Bell top knob -->
    <circle cx="256" cy="112" r="16"/>

    <!-- Bell body -->
    <path d="M196 200
             C196 166.9 222.9 140 256 140
             C289.1 140 316 166.9 316 200
             L316 296
             L340 296
             C348.8 296 356 303.2 356 312
             C356 320.8 348.8 328 340 328
             L172 328
             C163.2 328 156 320.8 156 312
             C156 303.2 163.2 296 172 296
             L196 296
             Z"/>

    <!-- Bell clapper -->
    <circle cx="256" cy="352" r="24"/>
  </g>

  <!-- Sound waves -->
  <g fill="none" stroke="white" stroke-width="12" stroke-linecap="round">
    <path d="M130 210 C108 240 108 270 130 300" opacity="0.7"/>
    <path d="M100 190 C68 235 68 275 100 320" opacity="0.4"/>
    <path d="M382 210 C404 240 404 270 382 300" opacity="0.7"/>
    <path d="M412 190 C444 235 444 275 412 320" opacity="0.4"/>
  </g>
</svg>
